<?xml version="1.0" encoding="UTF-8"?>
<svg width="512" height="512" version="1.1" viewBox="0 0 77 77" xmlns="http://www.w3.org/2000/svg">
  <rect width="100%" height="100%" rx="3" ry="3" fill="#0af"/>
  <path id="logo" d="m38.5 14.317-6.2726 12.224c1.1971-0.54836 2.4146-0.72928 3.6842-0.5479v20.254c-2.0254-0.13906-3.5141-0.06425-5.0256 0.35897-0.60458-9.2501-3.0229-14.397-5.4413-19.233 1.058-0.55017 2.0518-0.36275 3.0796-0.15115-2.6602-3.2648-6.2348-5.7753-12.583-5.9325 5.5622 6.7109 10.588 15.787 11.071 30.116l-0.01886 0.51012c2.5393-0.60458 4.6251-1.389 8.9176-1.3225v12.092h5.1768v-12.092c4.2926-0.06653 6.3784 0.71794 8.9176 1.3225l-0.01886-0.51012c0.48366-14.329 5.5093-23.405 11.071-30.116-6.3481 0.15719-9.9227 2.6677-12.583 5.9325 1.0278-0.2116 2.0216-0.39903 3.0796 0.15115-2.4183 4.8367-4.8367 9.9832-5.4413 19.233-1.5115-0.42321-3.0003-0.49803-5.0256-0.35897v-20.254c1.2696-0.18138 2.4871-4.6e-5 3.6842 0.5479z" stroke-width=".60458"/>
</svg>
